<svg width="203" height="203" viewBox="0 0 203 203" fill="none" xmlns="http://www.w3.org/2000/svg">
<path fill-rule="evenodd" clip-rule="evenodd" d="M111.962 52.5L119.01 59.5486H143.681V73.6458H45V59.5486H69.6701L76.7188 52.5H111.962ZM94.3403 120.096L109.283 105.153L119.222 115.092L104.279 130.035L119.222 144.978L109.283 154.916L94.3403 139.973L79.3972 154.916L69.4587 144.978L84.4017 130.035L69.3882 115.092L79.3267 105.153L94.3403 120.096ZM45.5 165.278C45.5 173.031 58.3924 179.375 66.1458 179.375H122.535C130.288 179.375 142.5 173.031 142.5 165.278C142.5 165.278 137.473 165.278 128.403 165.278C122.813 165.278 109.82 165.278 101.389 165.278C79.2778 165.278 60.5 165.278 60.5 165.278V83.2917H45.5V165.278Z" fill="black"/>
<path d="M128.403 165.278H142.5V83.2917H128.403L128.403 165.278Z" fill="black"/>
<path d="M142.5 165.278C142.5 173.031 130.288 179.375 122.535 179.375H66.1458C58.3924 179.375 45.5 173.031 45.5 165.278V83.2917H60.5V165.278C60.5 165.278 79.2778 165.278 101.389 165.278C109.82 165.278 122.813 165.278 128.403 165.278M142.5 165.278C142.5 165.278 137.473 165.278 128.403 165.278M142.5 165.278V83.2917H128.403L128.403 165.278M142.5 165.278H128.403M111.962 52.5L119.01 59.5486H143.681V73.6458H45V59.5486H69.6701L76.7188 52.5H111.962ZM94.3403 120.096L109.283 105.153L119.222 115.092L104.279 130.035L119.222 144.978L109.283 154.916L94.3403 139.973L79.3972 154.916L69.4587 144.978L84.4017 130.035L69.3882 115.092L79.3267 105.153L94.3403 120.096Z" stroke="black" stroke-width="0.00169167"/>
</svg>
