<?xml version="1.0" encoding="iso-8859-1"?>
<!-- Uploaded to: SVG Repo, www.svgrepo.com, Generator: SVG Repo Mixer Tools -->
<!DOCTYPE svg PUBLIC "-//W3C//DTD SVG 1.1//EN" "http://www.w3.org/Graphics/SVG/1.1/DTD/svg11.dtd">
<svg fill="#000000" height="800px" width="800px" version="1.1" id="Capa_1" xmlns="http://www.w3.org/2000/svg" xmlns:xlink="http://www.w3.org/1999/xlink" 
	 viewBox="0 0 460.89 460.89" xml:space="preserve">
<path d="M436.399,392.184c-89.174,0-161.733-72.562-161.75-161.744c0.017-89.149,72.576-161.711,161.733-161.734
	c13.537-0.008,24.49-10.97,24.49-24.498c0-13.52-10.969-24.481-24.49-24.481c-100.971,0.031-185.507,71.476-205.93,166.421
	C210.013,91.194,125.479,19.757,24.522,19.726c-13.521,0-24.49,10.961-24.49,24.481c0,13.528,10.954,24.49,24.49,24.498
	c89.141,0.023,161.702,72.584,161.733,161.725c-0.031,89.19-72.593,161.753-161.767,161.753C10.97,392.184,0,403.144,0,416.673
	c0,13.528,10.97,24.49,24.489,24.49c100.974,0,185.523-71.437,205.964-166.423c20.423,94.978,104.959,166.423,205.946,166.423
	c13.52,0,24.49-10.962,24.49-24.49C460.89,403.144,449.92,392.184,436.399,392.184z"/>
</svg>